HIERARCHY
ROOT Hips
{
 OFFSET 0.000000 0.000000 0.000000
 CHANNELS 6 Xposition Yposition Zposition Yrotation Xrotation Zrotation
 JOINT Chest
 {
  OFFSET 0.000000 14.634200 -0.016200
  CHANNELS 3 Yrotation Xrotation Zrotation
  JOINT Chest2
  {
   OFFSET 0.000000 8.932900 0.033000
   CHANNELS 3 Yrotation Xrotation Zrotation
   JOINT Chest3
   {
    OFFSET 0.000000 8.892300 0.000000
    CHANNELS 3 Yrotation Xrotation Zrotation
    JOINT Chest4
    {
     OFFSET 0.000000 8.883200 0.000000
     CHANNELS 3 Yrotation Xrotation Zrotation
     JOINT Neck
     {
      OFFSET 0.000000 13.173600 0.000000
      CHANNELS 3 Yrotation Xrotation Zrotation
      JOINT Head
      {
       OFFSET 0.000000 8.324600 0.069800
       CHANNELS 3 Yrotation Xrotation Zrotation
       End Site
       {
        OFFSET 0.000000 15.692400 0.036900
       }
      }
     }
     JOINT RightCollar
     {
      OFFSET -2.619200 8.772200 0.000000
      CHANNELS 3 Yrotation Xrotation Zrotation
      JOINT RightShoulder
      {
       OFFSET -12.922000 0.000000 0.000000
       CHANNELS 3 Yrotation Xrotation Zrotation
       JOINT RightElbow
       {
        OFFSET 0.000000 -27.880900 0.000000
        CHANNELS 3 Yrotation Xrotation Zrotation
        JOINT RightWrist
        {
         OFFSET 0.000000 -22.758700 0.008200
         CHANNELS 3 Yrotation Xrotation Zrotation
         End Site
         {
          OFFSET 0.000000 -16.965000 0.000000
         }
        }
       }
      }
     }
     JOINT LeftCollar
     {
      OFFSET 2.619200 8.772200 0.000000
      CHANNELS 3 Yrotation Xrotation Zrotation
      JOINT LeftShoulder
      {
       OFFSET 12.922000 0.000000 0.000000
       CHANNELS 3 Yrotation Xrotation Zrotation
       JOINT LeftElbow
       {
        OFFSET 0.000000 -27.880900 0.000000
        CHANNELS 3 Yrotation Xrotation Zrotation
        JOINT LeftWrist
        {
         OFFSET 0.000000 -22.758700 0.008200
         CHANNELS 3 Yrotation Xrotation Zrotation
         End Site
         {
          OFFSET 0.000000 -16.965000 0.000000
         }
        }
       }
      }
     }
    }
   }
  }
 }
 JOINT RightHip
 {
  OFFSET -12.026800 0.080100 0.008100
  CHANNELS 3 Yrotation Xrotation Zrotation
  JOINT RightKnee
  {
   OFFSET 0.000000 -42.600800 -0.000200
   CHANNELS 3 Yrotation Xrotation Zrotation
   JOINT RightAnkle
   {
    OFFSET 0.000000 -38.219300 0.054300
    CHANNELS 3 Yrotation Xrotation Zrotation
    JOINT RightToe
    {
     OFFSET 0.000000 -9.685800 15.804700
     CHANNELS 3 Yrotation Xrotation Zrotation
     End Site
     {
      OFFSET 0.000000 -1.422300 5.761700
     }
    }
   }
  }
 }
 JOINT LeftHip
 {
  OFFSET 12.026800 0.080100 0.008100
  CHANNELS 3 Yrotation Xrotation Zrotation
  JOINT LeftKnee
  {
   OFFSET 0.000000 -42.600800 -0.000200
   CHANNELS 3 Yrotation Xrotation Zrotation
   JOINT LeftAnkle
   {
    OFFSET 0.000000 -38.219300 0.054300
    CHANNELS 3 Yrotation Xrotation Zrotation
    JOINT LeftToe
    {
     OFFSET 0.000000 -9.685800 15.804700
     CHANNELS 3 Yrotation Xrotation Zrotation
     End Site
     {
      OFFSET 0.000000 -1.422300 5.761700
     }
    }
   }
  }
 }
}
MOTION
Frames: 16
Frame Time: 0.008333
-15.150749 130.311672 31.416763 168.038188 -35.317228 0.707442 -0.179350 18.699617 -0.082745 -0.016202 2.215564 0.000107 -0.033622 3.549141 -0.018181 -0.139884 16.379039 -0.048500 2.235835 22.750022 0.530869 2.292891 -1.289603 0.070556 10.190022 2.910397 -2.742549 27.134381 -37.124533 -14.160014 20.095306 -22.999680 2.645100 -2.789035 -10.929592 -54.491757 -9.491043 2.185664 -3.262374 -6.318917 -36.011121 2.571419 20.979103 -19.778316 -20.064413 17.469162 -19.113236 11.830657 1.339974 -39.208945 9.921489 -32.953061 76.914512 -43.566986 -6.928094 -17.923227 9.635246 0.008375 0.005998 0.005133 14.678938 -38.000449 -13.903823 79.852375 76.230802 88.412184 6.971930 0.755237 -4.276532 -0.007887 0.012009 -0.004834
-15.149834 130.324627 31.411417 168.034553 -35.410816 0.693376 -0.176827 18.707226 -0.079879 -0.013344 2.261537 0.005195 -0.033604 3.550488 -0.018335 -0.145431 16.361105 -0.062414 2.256428 22.769506 0.543026 2.304878 -1.299392 0.069134 10.217276 2.943056 -2.725913 27.137693 -37.116264 -14.167676 20.035510 -22.989957 2.667305 -2.777689 -10.956585 -54.490266 -9.487374 2.203242 -3.290932 -6.358746 -36.000291 2.620628 20.999624 -19.754244 -20.051406 17.483936 -19.116217 11.821254 1.398184 -39.150044 9.950598 -33.180257 76.933139 -43.768276 -6.894729 -17.920762 9.611729 0.015938 -0.001879 0.009768 14.646741 -37.923487 -13.864399 79.885670 76.232715 88.446568 6.989599 0.756969 -4.286937 -0.004097 0.004698 -0.002511
-15.149333 130.343070 31.400276 168.026113 -35.547698 0.687957 -0.171713 18.783404 -0.079587 -0.014766 2.234243 0.001597 -0.030292 3.597306 -0.012817 -0.153055 16.280656 -0.088198 2.284135 22.810544 0.557183 2.323103 -1.309154 0.065316 10.239722 3.053186 -2.679552 27.135868 -37.115788 -14.170998 20.005882 -22.998058 2.673063 -2.774680 -10.969857 -54.486921 -9.477481 2.309650 -3.301303 -6.381046 -35.996581 2.648273 21.024255 -19.751260 -20.050193 17.493502 -19.107317 11.810565 1.449942 -39.035731 9.970315 -33.243896 76.973809 -43.832672 -6.880652 -17.920173 9.608932 0.007756 -0.008756 0.004753 14.616278 -37.798698 -13.815334 79.915359 76.225006 88.473946 6.984625 0.760315 -4.287106 -0.005367 -0.010237 -0.003289
-15.156070 130.352674 31.400426 168.030656 -35.629872 0.692435 -0.179988 18.846532 -0.090777 -0.018834 2.139076 -0.017360 -0.028288 3.637857 -0.004732 -0.154545 16.280843 -0.091411 2.299249 22.806916 0.551594 2.342611 -1.376488 0.031690 10.259656 3.119794 -2.656208 27.166452 -37.126783 -14.212773 19.951536 -23.022645 2.677414 -2.799606 -10.966104 -54.467203 -9.467692 2.368173 -3.319613 -6.408221 -35.995418 2.679492 21.070778 -19.761031 -20.039761 17.514213 -19.068768 11.759315 1.468222 -38.963342 9.972536 -33.051964 77.056745 -43.699644 -6.904103 -17.938304 9.640180 -0.023019 0.000910 -0.014107 14.608418 -37.717867 -13.803734 79.916586 76.216294 88.469784 6.960205 0.748018 -4.272038 -0.003952 -0.009474 -0.002422
-15.158504 130.357485 31.406739 168.035830 -35.682202 0.673647 -0.179066 18.839558 -0.088107 -0.019973 2.143976 -0.015945 -0.028225 3.633357 -0.006035 -0.157430 16.301991 -0.081896 2.304973 22.775152 0.532097 2.350766 -1.368243 0.029504 10.284759 3.153165 -2.639646 27.207591 -37.145475 -14.285699 19.893630 -23.010194 2.716447 -2.858994 -10.984669 -54.438361 -9.458389 2.376894 -3.359706 -6.442439 -35.991588 2.734841 21.137813 -19.742742 -20.042508 17.576892 -19.026555 11.654086 1.579049 -38.947645 9.971291 -33.237200 77.088651 -43.829104 -6.910331 -17.937343 9.633011 -0.015705 0.004641 -0.009625 14.597748 -37.664679 -13.769246 79.885691 76.208744 88.436240 6.959188 0.726325 -4.261098 0.001751 0.000536 0.001073
-15.159832 130.359801 31.414560 168.044497 -35.716880 0.646081 -0.180292 18.835258 -0.074585 -0.017240 2.158490 -0.011152 -0.032591 3.620564 -0.009078 -0.158901 16.315098 -0.070858 2.303588 22.744696 0.509023 2.356946 -1.352798 0.029523 10.296265 3.179544 -2.634695 27.214363 -37.149511 -14.303082 19.862735 -23.038796 2.700289 -2.863106 -10.951402 -54.397915 -9.447910 2.381454 -3.401590 -6.455994 -36.004171 2.762224 21.152736 -19.714576 -20.029682 17.645732 -19.003990 11.570756 1.648097 -38.941651 9.982995 -33.460914 77.091135 -43.992772 -6.870419 -17.938141 9.600046 -0.003783 0.012112 -0.002319 14.599932 -37.626137 -13.730721 79.828932 76.211494 88.389028 6.948219 0.704966 -4.247223 0.008993 0.011254 0.005512
-15.165053 130.360258 31.421912 168.057315 -35.735941 0.630546 -0.180782 18.819057 -0.071362 -0.020869 2.178606 -0.005255 -0.036764 3.612876 -0.010081 -0.162819 16.321194 -0.059472 2.296822 22.716952 0.482110 2.358394 -1.379347 0.006889 10.303130 3.198076 -2.639857 27.216489 -37.154877 -14.310176 19.828070 -23.073649 2.686449 -2.861693 -10.909658 -54.356205 -9.438978 2.379829 -3.436197 -6.463840 -35.995352 2.778063 21.235006 -19.704039 -20.047073 17.643734 -18.967400 11.499835 1.710982 -38.950117 9.981749 -33.558913 77.131653 -44.064948 -6.872603 -17.944638 9.595975 -0.003416 0.018714 -0.002094 14.591339 -37.608569 -13.715735 79.816526 76.204636 88.373988 6.939060 0.695186 -4.236181 0.010417 0.018579 0.006385
-15.173428 130.361162 31.425957 168.074312 -35.754305 0.626988 -0.192869 18.825828 -0.076819 -0.022757 2.181544 -0.005106 -0.035679 3.606771 -0.010021 -0.170391 16.326250 -0.050844 2.285124 22.654501 0.450284 2.363038 -1.373272 -0.009931 10.320089 3.215223 -2.640032 27.162390 -37.174346 -14.287756 19.842574 -23.100910 2.672836 -2.869889 -10.884741 -54.300567 -9.415926 2.359395 -3.477460 -6.474023 -35.981342 2.786293 21.284983 -19.687408 -20.057173 17.647895 -18.934486 11.424376 1.778551 -38.960253 9.963320 -33.604378 77.203258 -44.100573 -6.930900 -17.961846 9.629689 -0.014123 0.019377 -0.008657 14.600481 -37.583862 -13.720387 79.764579 76.207896 88.327889 6.929393 0.704002 -4.231073 0.013556 0.025001 0.008310
-15.180216 130.363266 31.426964 168.085999 -35.777604 0.622922 -0.200787 18.840251 -0.077246 -0.025103 2.187752 -0.006467 -0.036427 3.598910 -0.006998 -0.172665 16.333954 -0.051204 2.282422 22.641298 0.442860 2.358430 -1.417452 -0.040879 10.334340 3.231201 -2.633531 27.109744 -37.191987 -14.265112 19.866489 -23.130972 2.653908 -2.880533 -10.861314 -54.261868 -9.409837 2.355745 -3.487193 -6.426825 -36.013640 2.745678 21.248806 -19.657687 -20.034528 17.691713 -18.915236 11.336622 1.806622 -38.953548 9.956359 -33.706260 77.226067 -44.186270 -6.913178 -17.990568 9.631469 -0.030809 0.039922 -0.018888 14.608829 -37.558674 -13.721109 79.724932 76.214510 88.294494 6.919653 0.702844 -4.229378 0.018770 0.040507 0.011506
-15.184026 130.362918 31.430740 168.104072 -35.782393 0.601589 -0.210766 18.841814 -0.064695 -0.023349 2.178883 -0.002588 -0.038445 3.591315 -0.001943 -0.183402 16.343462 -0.044814 2.279173 22.636850 0.420990 2.355902 -1.455958 -0.067806 10.347612 3.245754 -2.645837 27.064275 -37.198333 -14.242973 19.892761 -23.157023 2.642026 -2.897438 -10.846304 -54.239842 -9.398885 2.357768 -3.510739 -6.417465 -36.022135 2.735744 21.303683 -19.648940 -20.051168 17.666668 -18.876129 11.257027 1.816619 -38.966247 9.964815 -33.823536 77.236139 -44.281019 -6.875721 -17.995520 9.606756 -0.031315 0.051918 -0.019201 14.600254 -37.557944 -13.709457 79.679834 76.217926 88.255753 6.920858 0.726188 -4.229407 0.014974 0.039135 0.009179
-15.187228 130.360527 31.436594 168.129598 -35.771767 0.571961 -0.223105 18.819708 -0.047372 -0.024428 2.178909 -0.001436 -0.040451 3.599904 -0.002828 -0.189547 16.335727 -0.034512 2.277120 22.618162 0.403761 2.357415 -1.478077 -0.085728 10.359955 3.253598 -2.655009 27.026440 -37.199962 -14.227862 19.924767 -23.173017 2.633837 -2.909841 -10.865766 -54.234381 -9.387503 2.351997 -3.529868 -6.420755 -36.011984 2.736160 21.352217 -19.649952 -20.064224 17.635225 -18.834484 11.174544 1.883207 -39.036826 9.964782 -34.160171 77.268425 -44.552148 -6.877621 -17.948108 9.589940 -0.006272 0.013411 -0.003844 14.582195 -37.575943 -13.697742 79.648018 76.219633 88.230501 6.925609 0.759876 -4.228429 0.009726 0.022092 0.005961
-15.191676 130.359380 31.439845 168.160979 -35.767727 0.545797 -0.244968 18.810770 -0.040879 -0.019650 2.169863 -0.007557 -0.048232 3.608753 0.005177 -0.198706 16.335353 -0.030602 2.281651 22.564977 0.382003 2.364199 -1.471532 -0.090983 10.375908 3.247766 -2.663488 27.005161 -37.193795 -14.214268 19.949873 -23.179640 2.624542 -2.877320 -10.938381 -54.297841 -9.370081 2.325941 -3.547463 -6.423937 -35.998616 2.733057 21.381472 -19.644805 -20.050923 17.596545 -18.792170 11.087983 1.887689 -39.070932 9.968898 -34.326961 77.295010 -44.694312 -6.859259 -17.945679 9.583267 -0.006164 0.010697 -0.003778 14.565676 -37.591948 -13.694332 79.635131 76.209649 88.217557 6.919461 0.784464 -4.223171 0.008415 0.014537 0.005158
-15.193744 130.358852 31.442388 168.191535 -35.766221 0.511640 -0.257237 18.802397 -0.028466 -0.017771 2.165639 -0.007776 -0.054198 3.609196 0.007543 -0.209272 16.304735 -0.029126 2.298140 22.571196 0.376128 2.385998 -1.533010 -0.120482 10.389471 3.269466 -2.660291 26.987159 -37.184759 -14.196985 19.961603 -23.178882 2.623860 -2.832244 -10.996564 -54.352975 -9.357575 2.354402 -3.555843 -6.426518 -36.009268 2.726088 21.392982 -19.633799 -20.042376 17.556017 -18.762283 11.020310 1.865212 -39.089273 9.987945 -34.408416 77.305813 -44.762546 -6.826778 -17.935248 9.576931 -0.007476 0.017368 -0.004582 14.544569 -37.604854 -13.681916 79.637463 76.211152 88.226224 6.925934 0.801746 -4.234391 0.007557 0.011218 0.004632
-15.197577 130.358787 31.443956 168.216697 -35.766080 0.488447 -0.262862 18.793391 -0.024609 -0.024234 2.168305 -0.002505 -0.049952 3.599594 0.004077 -0.217290 16.291549 -0.025228 2.310283 22.561676 0.372225 2.399917 -1.543888 -0.127487 10.395903 3.274264 -2.660764 26.992797 -37.173290 -14.189484 19.980002 -23.167120 2.605053 -2.844192 -11.024573 -54.364810 -9.351988 2.355475 -3.561795 -6.431665 -36.028233 2.720828 21.380070 -19.607933 -20.018650 17.526512 -18.729376 10.962586 1.851767 -39.104065 9.997245 -34.487582 77.316700 -44.827092 -6.818233 -17.938843 9.576718 -0.010630 0.021366 -0.006516 14.553049 -37.603557 -13.688925 79.605320 76.214542 88.221196 6.897058 0.809675 -4.241950 0.004039 0.010470 0.002476
-15.203129 130.357964 31.446547 168.231142 -35.759565 0.477790 -0.261795 18.763922 -0.036547 -0.031044 2.184684 0.012385 -0.047475 3.587000 0.001659 -0.226816 16.281537 -0.027517 2.327606 22.550270 0.371258 2.403912 -1.529407 -0.122793 10.408171 3.276311 -2.663547 27.009558 -37.161753 -14.186298 19.986643 -23.136985 2.590025 -2.855287 -11.066904 -54.375035 -9.348762 2.353435 -3.565441 -6.445712 -36.018143 2.728709 21.351055 -19.613238 -19.983500 17.532591 -18.693562 10.899214 1.867072 -39.150292 9.993979 -34.629289 77.343508 -44.940386 -6.821593 -17.924278 9.575817 -0.007143 0.008874 -0.004378 14.546560 -37.609435 -13.689462 79.554922 76.209189 88.170332 6.874957 0.823914 -4.256003 -0.001267 0.007785 -0.000777
-15.207553 130.358890 31.447347 168.253074 -35.764457 0.460495 -0.273164 18.754868 -0.040933 -0.034221 2.182123 0.011822 -0.048417 3.582933 0.002024 -0.226918 16.275682 -0.028433 2.346582 22.534939 0.373284 2.408564 -1.514887 -0.115912 10.418163 3.275391 -2.666226 27.107483 -37.156970 -14.233456 19.917960 -23.086883 2.583303 -2.815433 -11.097398 -54.382450 -9.358293 2.320631 -3.579396 -6.463169 -35.978476 2.754213 21.348490 -19.600974 -19.958955 17.533930 -18.680485 10.867834 1.849013 -39.156929 10.000350 -34.651806 77.353482 -44.949626 -6.825615 -17.928396 9.572661 -0.006173 0.012177 -0.003783 14.548537 -37.600547 -13.695736 79.483884 76.211201 88.100634 6.883149 0.834042 -4.240417 -0.008795 0.004376 -0.005390
